<svg xmlns="http://www.w3.org/2000/svg" width="147" height="42" viewBox="0 0 147 42">
    <g fill="none">
        <path fill="#95BF47" d="M31.62 8.09c-.025-.215-.215-.31-.359-.31-.143 0-3.269-.24-3.269-.24s-2.172-2.17-2.434-2.385c-.239-.24-.692-.168-.883-.12-.024 0-.477.143-1.217.382-.74-2.124-2.005-4.057-4.272-4.057h-.214C18.352.55 17.54.167 16.872.167c-5.25 0-7.78 6.563-8.567 9.903-2.053.645-3.508 1.074-3.675 1.146-1.146.358-1.17.382-1.313 1.456-.12.811-3.102 23.887-3.102 23.887l23.22 4.343 12.6-2.72c.023-.048-4.392-29.877-4.416-30.092zM22.17 5.75c-.573.167-1.265.382-1.958.62v-.429c0-1.289-.167-2.339-.477-3.174 1.193.143 1.933 1.456 2.434 2.983zm-3.89-2.72c.31.811.525 1.956.525 3.531v.24c-1.29.405-2.65.81-4.057 1.264.787-3.007 2.29-4.486 3.532-5.035zm-1.528-1.48c.239 0 .478.096.668.239-1.694.787-3.484 2.768-4.223 6.777-1.122.358-2.196.668-3.222 1.002.86-3.054 3.007-8.018 6.777-8.018z"/>
        <path fill="#5E8E3E" d="M31.261 7.732c-.143 0-3.269-.239-3.269-.239s-2.172-2.171-2.434-2.386c-.096-.096-.215-.143-.31-.143l-1.742 35.938 12.6-2.72S31.69 8.305 31.667 8.09c-.095-.215-.262-.31-.406-.358z"/>
        <path fill="#FFF" d="M19.186 14.7l-1.527 4.606s-1.384-.74-3.03-.74c-2.459 0-2.578 1.551-2.578 1.933 0 2.1 5.489 2.911 5.489 7.851 0 3.89-2.458 6.395-5.775 6.395-4.01 0-6.014-2.481-6.014-2.481l1.074-3.532s2.1 1.813 3.866 1.813c1.17 0 1.646-.906 1.646-1.575 0-2.744-4.486-2.863-4.486-7.397 0-3.795 2.72-7.47 8.233-7.47 2.052-.023 3.102.597 3.102.597z"/>
        <path fill="#000" d="M50.734 23.363c-1.265-.669-1.909-1.265-1.909-2.053 0-1.002.907-1.646 2.315-1.646 1.646 0 3.102.668 3.102.668l1.146-3.508s-1.05-.812-4.153-.812c-4.32 0-7.326 2.482-7.326 5.966 0 1.981 1.408 3.484 3.27 4.558 1.527.836 2.052 1.456 2.052 2.363 0 .93-.764 1.694-2.172 1.694-2.076 0-4.057-1.074-4.057-1.074l-1.217 3.508s1.814 1.217 4.868 1.217c4.439 0 7.66-2.195 7.66-6.133-.047-2.147-1.646-3.627-3.579-4.748zm17.707-7.398c-2.196 0-3.914 1.05-5.226 2.625l-.048-.024 1.91-9.927h-4.94l-4.821 25.295h4.94l1.646-8.639c.645-3.269 2.339-5.297 3.914-5.297 1.121 0 1.551.763 1.551 1.837 0 .668-.048 1.527-.215 2.196l-1.861 9.903h4.94l1.933-10.214c.214-1.073.358-2.362.358-3.245-.024-2.84-1.48-4.51-4.081-4.51zm15.249 0c-5.966 0-9.904 5.37-9.904 11.359 0 3.818 2.363 6.92 6.802 6.92 5.846 0 9.784-5.226 9.784-11.359.023-3.555-2.029-6.92-6.682-6.92zm-2.434 14.509c-1.695 0-2.387-1.432-2.387-3.246 0-2.84 1.456-7.445 4.153-7.445 1.742 0 2.338 1.527 2.338 2.983 0 3.03-1.503 7.708-4.104 7.708zm21.787-14.51c-3.34 0-5.226 2.96-5.226 2.96h-.048l.287-2.649h-4.391c-.215 1.79-.62 4.534-1.003 6.563L89.25 40.95h4.94l1.384-7.326h.12s1.025.644 2.887.644c5.822 0 9.617-5.966 9.617-11.98-.024-3.34-1.528-6.323-5.155-6.323zm-4.725 14.558c-1.288 0-2.052-.74-2.052-.74l.811-4.606c.573-3.102 2.196-5.13 3.914-5.13 1.527 0 1.98 1.407 1.98 2.72.024 3.198-1.885 7.756-4.653 7.756zm16.92-21.645c-1.576 0-2.84 1.265-2.84 2.864 0 1.456.93 2.482 2.338 2.482h.048c1.551 0 2.864-1.05 2.888-2.864.023-1.456-.955-2.482-2.434-2.482zm-6.921 25.033h4.94l3.34-17.563h-4.963m17.564-.024h-3.437l.167-.812c.287-1.694 1.289-3.173 2.96-3.173.882 0 1.575.262 1.575.262l.954-3.89s-.835-.43-2.697-.43c-1.742 0-3.507.502-4.844 1.647-1.694 1.432-2.482 3.508-2.864 5.608l-.143.812h-2.314l-.74 3.746h2.315l-2.625 13.841h4.94l2.624-13.84h3.413l.716-3.771zm11.908.024s-3.103 7.803-4.463 12.075h-.048c-.095-1.384-1.217-12.075-1.217-12.075h-5.202l2.983 16.084c.048.358.024.572-.12.811-.572 1.122-1.55 2.196-2.696 2.983-.93.668-1.98 1.122-2.816 1.408l1.384 4.2c1.003-.215 3.103-1.05 4.845-2.697 2.243-2.1 4.343-5.369 6.49-9.808l6.038-13.005h-5.178v.024z"/>
    </g>
</svg>
