<svg xmlns="http://www.w3.org/2000/svg" width="93" height="36" viewBox="0 0 93 36">
    <g fill="none">
        <path fill="#FBBD71" d="M52.959.684c-1.785.893-2.559 2.559-2.559 7.081 0 0 .893-.892 2.32-1.428 1.042-.387 1.786-.892 2.321-1.28C56.588 3.898 56.826 2.5 56.826.06c-.03 0-2.469-.15-3.867.624z"/>
        <path fill="#000" d="M42.04 1.726c-1.547 1.279-1.934 3.48-1.934 3.48l-4.999 19.16-4.105-15.678c-.387-1.667-1.16-3.72-2.321-5.148-1.428-1.814-4.403-1.933-4.76-1.933-.268 0-3.214.119-4.76 1.933C18 4.97 17.225 7.021 16.84 8.688l-3.868 15.679-4.998-19.16S7.587 3.154 6.04 1.726C3.6-.476 0 .06 0 .06l9.52 35.85s3.095.269 4.642-.505c2.053-1.041 3.094-1.785 4.255-6.694 1.16-4.374 4.254-17.108 4.492-18 .12-.387.387-1.547 1.16-1.547.774 0 1.042 1.041 1.16 1.547.269.892 3.333 13.626 4.493 18 1.28 4.88 2.172 5.653 4.255 6.694 1.547.774 4.641.506 4.641.506L48.08.06s-3.6-.506-6.04 1.666zM56.797 5.831s-.655.893-1.934 1.667c-.893.505-1.666.773-2.559 1.279-1.547.773-1.934 1.547-1.934 2.707v24.308s2.44.268 3.987-.506c2.053-1.041 2.44-2.053 2.44-6.426V5.83zM80.45 18.06L92.529.179s-4.998-.893-7.587 1.428c-1.666 1.428-3.332 4.105-3.332 4.105l-4.374 6.427c-.267.387-.505.654-.892.654s-.774-.386-.893-.654l-4.373-6.427s-1.785-2.558-3.333-4.105C65.187-.714 60.16.179 60.16.179l11.692 17.85-11.96 17.852s5.266.655 7.854-1.666c1.667-1.428 3.214-3.868 3.214-3.868l4.373-6.426c.268-.387.506-.655.893-.655s.773.387.892.655l4.374 6.426s1.666 2.44 3.213 3.868c2.559 2.32 7.706 1.666 7.706 1.666L80.45 18.06z"/>
    </g>
</svg>
